<svg id="logo" xmlns="http://www.w3.org/2000/svg" width="190.406" height="62" viewBox="0 0 190.406 62">
  <metadata><?xpacket begin="﻿" id="W5M0MpCehiHzreSzNTczkc9d"?>
<x:xmpmeta xmlns:x="adobe:ns:meta/" x:xmptk="Adobe XMP Core 5.6-c138 79.159824, 2016/09/14-01:09:01        ">
   <rdf:RDF xmlns:rdf="http://www.w3.org/1999/02/22-rdf-syntax-ns#">
      <rdf:Description rdf:about=""/>
   </rdf:RDF>
</x:xmpmeta>
                                                                                                    
                                                                                                    
                                                                                                    
                                                                                                    
                                                                                                    
                                                                                                    
                                                                                                    
                                                                                                    
                                                                                                    
                                                                                                    
                                                                                                    
                                                                                                    
                                                                                                    
                                                                                                    
                                                                                                    
                                                                                                    
                                                                                                    
                                                                                                    
                                                                                                    
                                                                                                    
                           
<?xpacket end="w"?></metadata>
<defs>
    <style>
      .cls-1 {
        fill: #0eaa42;
      }

      .cls-1, .cls-2 {
        fill-rule: evenodd;
      }

      .cls-2 {
        fill: #34cb74;
      }
    </style>
  </defs>
  <path id="ARS_VET" data-name="ARS      VET" class="cls-1" d="M96.705,77.394c-0.162-.064-0.776-0.32-1.778-0.736L87.006,56.721H82.544L74.655,76.658c-1,.416-1.617.672-1.778,0.736a0.9,0.9,0,0,0-.647.832v1.632h7.889V78.226a0.9,0.9,0,0,0-.647-0.832c-0.065-.032-0.291-0.1-0.647-0.256l0.1-.192,1.2-3.3h9.311l1.164,3.136,0.129,0.352c-0.356.16-.582,0.224-0.647,0.256a0.9,0.9,0,0,0-.647.832v1.632H97.32V78.226A0.844,0.844,0,0,0,96.705,77.394ZM83.9,63.441c0.129-.352.291-0.736,0.42-1.216s0.291-.992.453-1.536c0.162,0.544.291,1.088,0.453,1.536s0.291,0.832.42,1.184l2.684,7.2H81.251ZM120.63,76.978a1.787,1.787,0,0,0-.259-0.032c-0.129,0-.291-0.064-0.55-0.1s-0.614-.1-1-0.16l-3.686-5.376a4.357,4.357,0,0,0-1.422-1.344,9.235,9.235,0,0,0,2.2-1.024,5.941,5.941,0,0,0,1.617-1.472,6.627,6.627,0,0,0,1-1.888,7.19,7.19,0,0,0,.356-2.208,6.644,6.644,0,0,0-.518-2.688,5.388,5.388,0,0,0-1.616-2.112,7.765,7.765,0,0,0-2.781-1.376,15.362,15.362,0,0,0-4.106-.48h-9.344v1.888a0.922,0.922,0,0,0,.809.992,1.148,1.148,0,0,0,.194.032c0.1,0,.258.064,0.485,0.1s0.581,0.1.969,0.16v16.8c-0.388.064-.743,0.128-0.969,0.16a3.112,3.112,0,0,0-.485.1,1.148,1.148,0,0,0-.194.032,0.922,0.922,0,0,0-.809.992v1.888h9.247V77.97a0.922,0.922,0,0,0-.808-0.992,1.168,1.168,0,0,0-.194-0.032c-0.1,0-.259-0.064-0.485-0.1s-0.582-.1-0.97-0.16V70.8h1.649a2,2,0,0,1,.97.192,1.721,1.721,0,0,1,.614.576l4.914,7.424a2.042,2.042,0,0,0,.647.64,1.813,1.813,0,0,0,.97.224h4.365V77.97A0.922,0.922,0,0,0,120.63,76.978Zm-8.7-9.568a7.112,7.112,0,0,1-2.134.32h-2.489v-7.68h2.554a5.582,5.582,0,0,1,3.589.928,3.313,3.313,0,0,1,1.164,2.72,4.274,4.274,0,0,1-.291,1.6,3.487,3.487,0,0,1-.873,1.28A4.051,4.051,0,0,1,111.932,67.41Zm28.1,2.752a5,5,0,0,0-1.229-1.7,6.334,6.334,0,0,0-1.746-1.152,21.149,21.149,0,0,0-1.972-.8c-0.679-.224-1.326-0.448-1.972-0.64a10.946,10.946,0,0,1-1.746-.7,3.584,3.584,0,0,1-1.2-.928,2.068,2.068,0,0,1-.485-1.344,2.58,2.58,0,0,1,.938-2.112,3.433,3.433,0,0,1,1.132-.608,5.544,5.544,0,0,1,1.552-.192,10.243,10.243,0,0,1,3.782.512q0.195,2.16.291,2.592a0.707,0.707,0,0,0,.744.608h1.843v-5.92a17.928,17.928,0,0,0-6.693-1.312,8.606,8.606,0,0,0-3.265.576,7.72,7.72,0,0,0-2.393,1.472,6.125,6.125,0,0,0-1.487,2.144,6.018,6.018,0,0,0-.517,2.464,6.973,6.973,0,0,0,.485,2.656,4.746,4.746,0,0,0,1.2,1.792,6.441,6.441,0,0,0,1.746,1.184,20.86,20.86,0,0,0,1.972.768c0.647,0.224,1.326.384,1.972,0.576a10.568,10.568,0,0,1,1.714.672,3.411,3.411,0,0,1,1.228.96,2.452,2.452,0,0,1,.453,1.5,3.081,3.081,0,0,1-1,2.5,4.34,4.34,0,0,1-2.878.864,16.623,16.623,0,0,1-4.429-.416c-0.129-1.472-.226-2.368-0.291-2.656a0.682,0.682,0,0,0-.744-0.576h-1.843V78.9a21.233,21.233,0,0,0,6.693,1.216h0.485a9.487,9.487,0,0,0,3.427-.576,7.358,7.358,0,0,0,2.554-1.6,6.375,6.375,0,0,0,1.585-2.4,7.925,7.925,0,0,0,.549-2.912A5.7,5.7,0,0,0,140.028,70.162Zm82.44-13.44h-7.63v1.888a0.921,0.921,0,0,0,.808.992,0.352,0.352,0,0,1,.161.032,1.734,1.734,0,0,0,.356.1c0.162,0.032.323,0.1,0.517,0.128l-4.623,11.968a21.735,21.735,0,0,0-.938,3.232q-0.242-.912-0.485-1.728a13.5,13.5,0,0,0-.517-1.5l-4.656-11.968c0.194-.032.356-0.1,0.518-0.128a1.331,1.331,0,0,0,.323-0.1,0.355,0.355,0,0,1,.162-0.032,0.922,0.922,0,0,0,.808-0.992V56.721h-8.73v1.888a0.922,0.922,0,0,0,.809.992,0.487,0.487,0,0,1,.194.032c0.1,0,.258.064,0.485,0.1s0.517,0.1.905,0.16l8.18,19.969h3.912l8.147-19.969c0.388-.064.712-0.128,0.938-0.16s0.356-.1.453-0.1,0.129-.032.194-0.032a0.922,0.922,0,0,0,.808-0.992V56.721h-1.1Zm4.751,0h-2.457v1.888a0.922,0.922,0,0,0,.808.992,1.168,1.168,0,0,0,.194.032c0.1,0,.259.064,0.485,0.1s0.582,0.1.97,0.16v16.8c-0.388.064-.743,0.128-0.97,0.16s-0.388.1-.485,0.1a1.168,1.168,0,0,0-.194.032,0.922,0.922,0,0,0-.808.992v1.888h17.2V73.746h-1.876a0.706,0.706,0,0,0-.743.608c-0.033.256-.13,0.928-0.227,2.048h-7.533V69.874h7.921V66.545h-7.921v-6.4h7.533c0.1,1.12.194,1.792,0.227,2.048a0.706,0.706,0,0,0,.743.608h1.876v-6.08H227.219Zm34.885,0H243.19v5.472h1.875a0.707,0.707,0,0,0,.744-0.608c0.032-.192.1-0.64,0.162-1.344h4.752V76.69c-0.388.064-.711,0.128-0.937,0.16s-0.388.1-.485,0.1a1.148,1.148,0,0,0-.194.032,0.921,0.921,0,0,0-.808.992v1.888h9.246V77.97a0.948,0.948,0,0,0-.84-0.992,1.168,1.168,0,0,0-.194-0.032c-0.1,0-.259-0.064-0.485-0.1s-0.55-.1-0.938-0.16V60.273h4.753c0.065,0.7.129,1.12,0.162,1.312a0.739,0.739,0,0,0,.776.608h1.842V56.721H262.1Z" transform="translate(-72.219 -29)"/>
  <path class="cls-2" d="M178.837,30.609s-1.39.4-.32,1.189c1.125,0.806,4.888,1.871,3.824,10.952-0.44,4.176-2.289,5.217-2.3,5.213-0.139.189-9.674-3.154-13.749-3.1-1.537-.7-3.038-1.423-4.517-2.137q-0.549-.894-1.078-1.792-0.37-.838-0.726-1.678a1.924,1.924,0,0,0,.46-2.182,27.9,27.9,0,0,0-2.614-5.941,4.776,4.776,0,0,0-3.03-1.964c-0.916-.188-3.342-0.316-4.178.342-2.615,1.812-3.4,2.333-2.765,3.323,0.608,1.011-.245,1.668-0.718,2.112a16.959,16.959,0,0,0-2.136,1.846,4.105,4.105,0,0,0-.911,1.486,2.156,2.156,0,0,0-.079.391,1.84,1.84,0,0,0-.01.2,1.608,1.608,0,0,0,.011.2,1.869,1.869,0,0,0,.281.781c1.265,2.079,1.5,2.662,2.469,2.846a7.173,7.173,0,0,0,1.066.194q-0.211.394-.417,0.788a0.969,0.969,0,0,0,.7.141,10.993,10.993,0,0,0,3.764-2.192c0.025-.011,1.246.948,0.479,5.073-0.341,1.093-.9,9.86-0.827,9.843a12.19,12.19,0,0,1,1.281,3.875c0.382,2.372.445,7.162,0.816,8.875s0.627,8.843.621,8.846,0.241,4.171-.22,4.737c-0.453.591-2.847,2.321-1.342,3.93,0.707,0.506,3.343,1.516,3.474.341,0.177-1.171.4-11.343,0.372-11.333,0.1-3.132.2-6.258,0.343-9.385q0.315-.762.637-1.528s0.374-1.035,1.353-.035,1.529,2.4,1.89,5.646c0.371,3.217.62,13.613,0.587,13.645q-0.131,1.307-.274,2.618a5.779,5.779,0,0,1-.681,1.176c-0.475.658-1.615,2.42,0.39,2.84,0.5,0.1.9,0.174,1.212,0.2a2.5,2.5,0,0,0,.416.011,0.98,0.98,0,0,0,.312-0.069c0.353-.15.472-0.549,0.541-1.352,0.139-1.6.447-3.614,0.575-4.841,0.155-1.331.358-17.813,0.426-17.742,1.779-1.513,3.1-3.045,5-4.588-0.016.014,3.919-.887,4.627-1.537-0.028-.019.737,7.274,4.713,11.106a20.615,20.615,0,0,0,.928,3.82,37.021,37.021,0,0,1,.24,4.269,2.466,2.466,0,0,1-.631,1.676c-0.652.578-2.2,1.21-.951,2.546a2.273,2.273,0,0,0,2.874-.626,4.935,4.935,0,0,0,.657-1.266c0-.04-0.3-6.932-0.09-8.091a2.966,2.966,0,0,0-.492-2.507,12.464,12.464,0,0,1-1.741-8.419,1.9,1.9,0,0,1,1.255.506,5.638,5.638,0,0,1,.968,1.932,86.131,86.131,0,0,0,5.08,7.967,20.144,20.144,0,0,1,1.2,2.129c0.591,0.911,1.082,5.411,1.106,6.475,0.017,1.041-.4,2.682-0.905,3.061s-1.093,1.562.113,1.811,3,0.472,2.8-2.127c-0.21-2.629-.68-9.058-0.6-9.972a3.121,3.121,0,0,0,.005-0.315,1.753,1.753,0,0,0-.026-0.243,0.96,0.96,0,0,0-.116-0.323c-0.1-.161-0.22-0.239-0.291-0.378-0.114-.228-2.479-2.048-3.3-10.876-0.681-8.643-1.208-8.047-3.506-12.683,0-.181,3.52-10.6-0.019-16.614-1.941-3-4.259-3.145-4.289-3.118h0Z" transform="translate(-72.219 -29)"/>
</svg>
